<svg xmlns="http://www.w3.org/2000/svg" xmlns:xlink="http://www.w3.org/1999/xlink" width="800" zoomAndPan="magnify" viewBox="0 0 600 449.999984" height="600" preserveAspectRatio="xMidYMid meet" version="1.0"><defs><clipPath id="87ebecc6fe"><path d="M 180.144531 118.277344 L 420 118.277344 L 420 298 L 180.144531 298 Z M 180.144531 118.277344 " clip-rule="nonzero"/></clipPath></defs><path fill="#e4002b" d="M 365.566406 291.914062 L 234.726562 291.914062 L 186.125 123.894531 L 414.164062 123.894531 Z M 365.566406 291.914062 " fill-opacity="1" fill-rule="nonzero"/><g clip-path="url(#87ebecc6fe)"><path fill="#e4002b" d="M 414.164062 118.667969 L 186.125 118.667969 C 184.632812 118.667969 182.386719 119.414062 181.640625 120.90625 C 180.144531 122.402344 180.144531 123.894531 180.144531 126.136719 L 228.742188 294.152344 C 229.492188 296.394531 231.734375 297.886719 234.726562 297.886719 L 365.566406 297.886719 C 367.808594 297.886719 370.050781 296.394531 370.800781 294.152344 L 419.398438 126.136719 C 420.144531 124.640625 419.398438 122.402344 418.648438 120.90625 C 417.15625 119.414062 415.660156 118.667969 414.164062 118.667969 Z M 192.855469 129.867188 L 405.941406 129.867188 L 360.332031 286.6875 L 238.464844 286.6875 Z M 192.855469 129.867188 " fill-opacity="1" fill-rule="nonzero"/></g></svg>